<svg xmlns="http://www.w3.org/2000/svg" xmlns:xlink="http://www.w3.org/1999/xlink" viewBox="0 0 1200 900"><defs><style>.cls-1{isolation:isolate;}.cls-2,.cls-8{fill:#e1ebdc;}.cls-10,.cls-11,.cls-12,.cls-13,.cls-14,.cls-15,.cls-16,.cls-18,.cls-19,.cls-20,.cls-21,.cls-22,.cls-3,.cls-5,.cls-6,.cls-8,.cls-9{stroke:#000;}.cls-10,.cls-11,.cls-12,.cls-13,.cls-14,.cls-15,.cls-16,.cls-18,.cls-19,.cls-20,.cls-21,.cls-22,.cls-23,.cls-24,.cls-25,.cls-27,.cls-28,.cls-29,.cls-3,.cls-5,.cls-6,.cls-8,.cls-9{stroke-linecap:round;stroke-linejoin:round;}.cls-10,.cls-11,.cls-12,.cls-13,.cls-15,.cls-16,.cls-18,.cls-19,.cls-20,.cls-21,.cls-22,.cls-3,.cls-5,.cls-6,.cls-8,.cls-9{stroke-width:0.75px;}.cls-3{fill:url(#linear-gradient);}.cls-4{fill:#579578;mix-blend-mode:multiply;}.cls-14,.cls-24,.cls-26,.cls-5{fill:none;}.cls-27,.cls-6{fill:#2b7a55;}.cls-7{fill:url(#linear-gradient-2);}.cls-9{fill:url(#linear-gradient-3);}.cls-10{fill:#82b19b;}.cls-11{fill:url(#linear-gradient-4);}.cls-12,.cls-29{fill:#ffaa05;}.cls-13{fill:#211e15;}.cls-14{stroke-width:2px;}.cls-15,.cls-28{fill:#fb6e2b;}.cls-16{fill:url(#linear-gradient-5);}.cls-17{fill:url(#linear-gradient-6);}.cls-18{fill:#adccbd;}.cls-19{fill:url(#linear-gradient-7);}.cls-20{fill:url(#linear-gradient-8);}.cls-21{fill:url(#linear-gradient-9);}.cls-23{fill:#f3b8b4;}.cls-23,.cls-24,.cls-25,.cls-27,.cls-28,.cls-29{stroke:#001e01;stroke-width:0.5px;}.cls-25{fill:#001e01;}</style><linearGradient id="linear-gradient" x1="514.68" y1="752.19" x2="765.01" y2="426.52" gradientUnits="userSpaceOnUse"><stop offset="0" stop-color="#e1ebdc"/><stop offset="0.04" stop-color="#d7e0d3"/><stop offset="0.19" stop-color="#adb5af"/><stop offset="0.35" stop-color="#8b9291"/><stop offset="0.51" stop-color="#70767a"/><stop offset="0.67" stop-color="#5d6369"/><stop offset="0.83" stop-color="#52575f"/><stop offset="1" stop-color="#4e535c"/></linearGradient><linearGradient id="linear-gradient-2" x1="523.88" y1="216.45" x2="928.98" y2="699.23" gradientUnits="userSpaceOnUse"><stop offset="0.08" stop-color="#2b7a55" stop-opacity="0"/><stop offset="0.12" stop-color="#2b7a55" stop-opacity="0.06"/><stop offset="0.17" stop-color="#2b7a55" stop-opacity="0.23"/><stop offset="0.24" stop-color="#2b7a55" stop-opacity="0.52"/><stop offset="0.32" stop-color="#2b7a55" stop-opacity="0.9"/><stop offset="0.34" stop-color="#2b7a55"/><stop offset="0.63" stop-color="#2b7a55"/><stop offset="0.66" stop-color="#2b7a55" stop-opacity="0.84"/><stop offset="0.74" stop-color="#2b7a55" stop-opacity="0.48"/><stop offset="0.81" stop-color="#2b7a55" stop-opacity="0.22"/><stop offset="0.86" stop-color="#2b7a55" stop-opacity="0.06"/><stop offset="0.9" stop-color="#2b7a55" stop-opacity="0"/></linearGradient><linearGradient id="linear-gradient-3" x1="777.56" y1="367.08" x2="989.87" y2="367.08" gradientUnits="userSpaceOnUse"><stop offset="0" stop-color="#f5f9f4"/><stop offset="0.03" stop-color="#f2f7f0"/><stop offset="0.19" stop-color="#e8f0e5"/><stop offset="0.4" stop-color="#e3ecde"/><stop offset="1" stop-color="#e1ebdc"/></linearGradient><linearGradient id="linear-gradient-4" x1="656.36" y1="420.25" x2="989.87" y2="420.25" gradientUnits="userSpaceOnUse"><stop offset="0" stop-color="#4e535c"/><stop offset="0.26" stop-color="#51565e"/><stop offset="0.42" stop-color="#595e65"/><stop offset="0.55" stop-color="#676d72"/><stop offset="0.67" stop-color="#7b8183"/><stop offset="0.78" stop-color="#959c99"/><stop offset="0.88" stop-color="#b4bdb5"/><stop offset="0.98" stop-color="#d9e3d5"/><stop offset="1" stop-color="#e1ebdc"/></linearGradient><linearGradient id="linear-gradient-5" x1="656.36" y1="428.97" x2="989.87" y2="428.97" xlink:href="#linear-gradient-3"/><linearGradient id="linear-gradient-6" x1="271" y1="318.88" x2="676.07" y2="801.63" xlink:href="#linear-gradient-2"/><linearGradient id="linear-gradient-7" x1="210.13" y1="259.64" x2="543.64" y2="259.64" gradientUnits="userSpaceOnUse"><stop offset="0" stop-color="#e1ebdc"/><stop offset="0.02" stop-color="#d9e3d5"/><stop offset="0.12" stop-color="#b4bdb5"/><stop offset="0.22" stop-color="#959c99"/><stop offset="0.33" stop-color="#7b8183"/><stop offset="0.45" stop-color="#676d72"/><stop offset="0.58" stop-color="#595e65"/><stop offset="0.74" stop-color="#51565e"/><stop offset="1" stop-color="#4e535c"/></linearGradient><linearGradient id="linear-gradient-8" x1="210.13" y1="222.56" x2="543.64" y2="222.56" gradientUnits="userSpaceOnUse"><stop offset="0" stop-color="#e1ebdc"/><stop offset="0.6" stop-color="#e3ecde"/><stop offset="0.81" stop-color="#e8f0e5"/><stop offset="0.97" stop-color="#f2f7f0"/><stop offset="1" stop-color="#f5f9f4"/></linearGradient><linearGradient id="linear-gradient-9" x1="210.13" y1="284.45" x2="422.44" y2="284.45" xlink:href="#linear-gradient-8"/></defs><g class="cls-1"><g id="Layer_1" data-name="Layer 1"><rect class="cls-2" width="1200" height="900"/><path class="cls-3" d="M466.69,730.16c37.09-36.38,80.95-80.43,89.76-89.92,4.85-5.22,9.87-10.62,14.84-15.79,44.26-46,88.77-76.45,136.07-93.12,29.41-10.36,61-15.9,94.53-21.76,18-3.14,36.57-6.39,54.87-10.47,48.84-10.88,87.1-27.06,114.35-48.27l-51.06-15.67q-29.7,16.59-75.79,26.89c-17,3.8-35,6.93-52.32,10-34.26,6-69.69,12.19-103.39,24.07C646.12,511,606.21,535,567.47,568.85L456,538.23l-6.19,6.59c-20.59,21.93-27.27,52.43-19.87,90.66q.79,4.08,1.64,8.17c2.9,14.22,5.65,27.66,4.15,40.34a1.64,1.64,0,0,1,0,.23,48.2,48.2,0,0,1-14.51,28.64c-6.75,6.54-12.86,12.44-17.89,17.3M515.62,620.34c-8.87,9.13-28.5,28.42-49.71,49.1-.69-10.91-2.84-21.47-5-31.79-.53-2.63-1.07-5.25-1.58-7.88-4.74-24.48-2.49-43.43,6.9-57.61l75.64,20.78Z"/><polygon class="cls-4" points="645.62 471.94 535.62 441.94 455.62 521.94 505.62 561.94 615.62 591.94 695.62 511.94 645.62 471.94"/><path class="cls-5" d="M675.59,381.26l-5.8-3.17"/><path class="cls-6" d="M656.34,576.09l-4.24-5.84a2.42,2.42,0,0,1,1.79-3.83l5.32-.36,1.69-6.86a2.41,2.41,0,0,1,3.48-1.55l6.18,3.3,4.22-5a2.42,2.42,0,0,1,3.67,0L682,560l4.88-2.93a2.42,2.42,0,0,1,3.56,1.36l2,6.49"/><path class="cls-7" d="M894.57,563c-32.22-5.81-67.07-15.21-103.56-27.95q-6.75-2.36-13.42-4.79L656.34,576.09h0s59.4,22.43,71.79,26.75c45.66,15.94,88.38,27.38,130.61,35a643.55,643.55,0,0,0,114,10.56q8.61,0,17.13-.27V570C960.35,571.45,928.32,569.11,894.57,563Z"/><path class="cls-8" d="M786.5,540.19l-1.68-5.43a2.44,2.44,0,0,1,3-3.07l6,1.78,2.2-5.89a2.45,2.45,0,0,1,4.19-.69l4.69,5.78,6.3-5.06a2.45,2.45,0,0,1,3.92,1.38l1.39,6.19,6.61-.87a2.44,2.44,0,0,1,2.55,3.42l-2.7,6-6.46,4.88-2.32-4.53a3.08,3.08,0,0,0-4.26-1.28l-4.67,2.64L802,541.31a3.08,3.08,0,0,0-4.21-.6l-4.47,3.18"/><path class="cls-9" d="M989.87,391.46c-29.52,1.44-61.55-.9-95.3-7-32.22-5.8-67.07-15.2-103.56-27.94q-6.76-2.35-13.45-4.8v-9.46q6.69,2.45,13.45,4.8c36.49,12.74,71.34,22.14,103.56,27.95,33.75,6.08,65.78,8.42,95.3,7"/><polygon class="cls-6" points="815.36 412.72 815.36 393.81 694.16 439.62 694.16 458.53 734.56 462.17 741.43 534.12 713.07 573.81 713.07 582.66 796.45 551.14 796.45 542.29 768.08 524.05 774.96 446.9 815.36 412.72"/><polygon class="cls-10" points="694.16 439.62 675.25 433 675.25 451.91 694.16 458.53 694.16 458.53 694.16 458.53 694.16 439.62"/><polygon class="cls-10" points="694.16 567.19 694.16 576.04 713.07 582.66 713.07 573.81 713.07 573.81 694.16 567.19 694.16 567.19"/><polygon class="cls-10" points="741.43 534.12 722.52 527.5 722.52 527.5 694.16 567.19 713.07 573.81 741.43 534.12 741.43 534.12"/><polygon class="cls-10" points="734.56 462.17 716.11 460.51 722.52 527.5 741.43 534.12 734.56 462.17"/><polygon class="cls-5" points="815.36 412.72 815.36 393.81 694.16 439.62 694.16 458.53 734.56 462.17 741.43 534.12 713.07 573.81 713.07 582.66 796.45 551.14 796.45 542.29 768.08 524.05 774.96 446.9 815.36 412.72"/><path class="cls-11" d="M989.87,400.92c-29.52,1.44-61.55-.9-95.3-7C862.35,388.13,827.5,378.73,791,366q-6.76-2.36-13.45-4.8L656.36,407s59.4,22.43,71.79,26.76c45.66,15.93,88.38,27.38,130.61,35a644.45,644.45,0,0,0,114,10.55q8.61,0,17.13-.26"/><path class="cls-12" d="M989.87,437.56C954.44,438.9,916.8,436,877.79,429c-36.65-6.6-75.75-17.11-116.25-31.24-8.15-2.85-33-12-41.09-15l-7.61,2.87C721.37,388.85,749,399,757.61,402c41,14.32,80.71,25,117.94,31.69a549.26,549.26,0,0,0,97.19,9.07q8.64,0,17.13-.31"/><path class="cls-10" d="M989.87,488.49q-8.52.27-17.13.26a644.45,644.45,0,0,1-114-10.55c-42.23-7.61-85-19.05-130.61-35-12.39-4.32-71.79-26.75-71.79-26.75v9.45s59.4,22.43,71.79,26.76c45.66,15.93,88.38,27.38,130.61,35a644.45,644.45,0,0,0,114,10.55q8.61,0,17.13-.26"/><path class="cls-13" d="M989.87,479q-8.52.25-17.13.26a644.45,644.45,0,0,1-114-10.55c-42.23-7.61-85-19.06-130.61-35C715.76,429.43,656.36,407,656.36,407v9.46s59.4,22.43,71.79,26.75c45.66,15.94,88.38,27.38,130.61,35a644.45,644.45,0,0,0,114,10.55q8.61,0,17.13-.26"/><polygon class="cls-14" points="687.21 393.13 717.77 371.35 717.77 390.26 687.21 412.04 687.21 393.13"/><polygon class="cls-15" points="687.21 383.67 717.77 361.9 717.77 371.35 687.21 393.13 687.21 383.67"/><polygon class="cls-14" points="738.89 381.66 782.03 373.88 782.03 354.97 738.89 362.75 738.89 381.66"/><polygon class="cls-15" points="738.89 362.75 782.03 354.97 782.03 345.52 738.89 353.3 738.89 362.75"/><path class="cls-16" d="M989.87,460.13q-8.52.25-17.13.26a644.45,644.45,0,0,1-114-10.55c-42.23-7.61-85-19.06-130.61-35-12.39-4.33-71.79-26.76-71.79-26.76v9.46s59.4,22.43,71.79,26.75c45.66,15.94,88.38,27.38,130.61,35a644.45,644.45,0,0,0,114,10.55q8.61,0,17.13-.26"/><path class="cls-8" d="M672.51,587l-4.14-6.64a2.63,2.63,0,0,1,2.17-4l7.51-.16v-9.43a2.64,2.64,0,0,1,4-2.28l6.71,3.88,3.71-9.59a2.63,2.63,0,0,1,4.58-.61l6.61,9,6.15-6a2.62,2.62,0,0,1,4.38,1.27l2,8.18,8-2.19a2.63,2.63,0,0,1,3.2,3.34l-2,6.22,6.65,1.34a2.62,2.62,0,0,1,1.64,4.07l-4.2,6.08L725.16,585a2.63,2.63,0,0,0-4,.19l-3.35,4.38-5.25-1.63a2.63,2.63,0,0,0-3.41,2.36l-.32,5.51"/><path class="cls-5" d="M683.34,552.55l1-3.53"/><path class="cls-5" d="M684.39,373.52l-.18-3.52"/><path class="cls-5" d="M507.6,231.91l-1.05-5.27"/><path class="cls-5" d="M524.32,239.83l2.81-2.11"/><path class="cls-17" d="M471.85,415.23c-45.66-15.94-88.38-27.38-130.61-35a644.45,644.45,0,0,0-114-10.55q-8.61,0-17.13.26v78.12c29.52-1.44,61.55.9,95.3,7C337.65,460.85,372.5,470.26,409,483q6.67,2.34,13.29,4.75l121.25-45.8C540.78,440.9,483.94,419.45,471.85,415.23Z"/><polygon class="cls-18" points="524.65 303.98 524.65 285.07 403.44 330.88 403.44 349.79 443.85 353.43 450.72 425.38 422.35 465.07 422.35 473.92 505.74 442.4 505.74 433.55 477.37 415.31 484.25 338.16 524.65 303.98"/><polygon class="cls-10" points="403.44 330.88 384.54 324.26 384.54 343.17 403.44 349.79 403.44 349.79 403.44 349.79 403.44 330.88"/><polygon class="cls-10" points="403.44 458.45 403.44 467.3 422.35 473.92 422.35 465.07 422.35 465.07 403.44 458.45 403.44 458.45"/><polygon class="cls-10" points="450.72 425.38 431.81 418.76 431.81 418.76 403.44 458.45 422.35 465.07 450.72 425.38 450.72 425.38"/><polygon class="cls-10" points="443.85 353.43 425.4 351.77 431.81 418.76 450.72 425.38 443.85 353.43"/><polygon class="cls-5" points="524.65 303.98 524.65 285.07 403.44 330.88 403.44 349.79 443.85 353.43 450.72 425.38 422.35 465.07 422.35 473.92 505.74 442.4 505.74 433.55 477.37 415.31 484.25 338.16 524.65 303.98"/><polygon class="cls-13" points="422.44 328.15 543.64 282.34 543.64 272.89 422.44 318.7 422.44 328.15"/><polygon class="cls-18" points="422.44 337.61 543.64 291.8 543.64 282.34 422.44 328.15 422.44 337.61"/><path class="cls-19" d="M210.13,279c29.52-1.44,61.55.9,95.3,7,32.22,5.81,67.07,15.21,103.56,27.95q6.76,2.36,13.45,4.8l121.2-45.81s-59.4-22.43-71.79-26.76c-45.66-15.93-88.38-27.38-130.61-35a643.55,643.55,0,0,0-114-10.56q-8.61,0-17.13.26"/><path class="cls-12" d="M210.13,242.33c35.43-1.34,73.07,1.53,112.08,8.56,36.65,6.6,75.75,17.11,116.25,31.24,8.15,2.85,33,12,41.09,15l7.61-2.87c-8.53-3.2-36.13-13.32-44.77-16.34-41-14.32-80.71-25-117.94-31.69a549.26,549.26,0,0,0-97.19-9.07q-8.64,0-17.13.31"/><path class="cls-13" d="M210.13,288.43c29.52-1.44,61.55.9,95.3,7,32.22,5.8,67.07,15.2,103.56,27.94q6.76,2.37,13.45,4.8V318.7q-6.69-2.44-13.45-4.8C372.5,301.16,337.65,291.76,305.43,286c-33.75-6.08-65.78-8.42-95.3-7"/><path class="cls-10" d="M210.13,297.88c29.52-1.44,61.55.9,95.3,7,32.22,5.81,67.07,15.21,103.56,27.95q6.76,2.35,13.45,4.8v-9.46q-6.69-2.43-13.45-4.8c-36.49-12.74-71.34-22.14-103.56-27.94-33.75-6.08-65.78-8.42-95.3-7"/><path class="cls-20" d="M210.13,191.14h17.13a644.45,644.45,0,0,1,114,10.55c42.23,7.61,84.95,19.05,130.61,35,12.39,4.32,71.79,26.75,71.79,26.75V254s-59.4-22.43-71.79-26.75c-45.66-15.94-88.38-27.39-130.61-35a643.55,643.55,0,0,0-114-10.56q-8.61,0-17.13.26"/><polygon class="cls-14" points="416.49 303.36 459.63 295.57 459.63 276.66 416.49 284.45 416.49 303.36"/><polygon class="cls-15" points="416.49 284.45 459.63 276.66 459.63 267.21 416.49 274.99 416.49 284.45"/><path class="cls-21" d="M210.13,269.52c29.52-1.44,61.55.9,95.3,7,32.22,5.8,67.07,15.21,103.56,27.94q6.76,2.37,13.45,4.8v-9.45q-6.69-2.44-13.45-4.8C372.5,282.25,337.65,272.85,305.43,267c-33.75-6.08-65.78-8.42-95.3-7"/><polygon class="cls-14" points="486.34 268.65 516.9 246.87 516.9 265.78 486.34 287.56 486.34 268.65"/><polygon class="cls-15" points="486.34 259.19 516.9 237.42 516.9 246.87 486.34 268.65 486.34 259.19"/><path class="cls-8" d="M399.42,482.54l-4.4-4.7a2.84,2.84,0,0,1,1.63-4.76l5.24-.83-.85-4.41a2.85,2.85,0,0,1,3.43-3.32l7.27,1.66,2-5.23a2.85,2.85,0,0,1,4.93-.73l3.71,4.85,7.23-6.19a2.84,2.84,0,0,1,4.54,1.23l1.72,5,5.81-1.31a2.85,2.85,0,0,1,3.44,3.24l-.81,4.9,5.19,0A2.85,2.85,0,0,1,452,476.1l-2.78,4.95-4.22-.94a3.1,3.1,0,0,0-3.3,1.41l-2.55,4.19-4.5-.79a3.09,3.09,0,0,0-3.57,2.48l-.62,3.41"/><path class="cls-5" d="M396.08,467l-3.85-2.84"/><path class="cls-5" d="M713.19,581l-.57-4.19"/><path class="cls-5" d="M706.16,583.3l-2.51-2.42"/><polygon class="cls-8" points="455.62 441.94 455.62 521.94 565.62 551.94 565.62 471.94 510.62 406.94 455.62 441.94"/><polygon class="cls-18" points="645.62 391.94 565.62 471.94 565.62 551.94 645.62 471.94 645.62 391.94"/><polygon class="cls-15" points="465.62 524.67 465.62 479.67 485.62 485.13 485.62 530.13 465.62 524.67"/><polygon class="cls-6" points="480.62 469.67 480.62 444.67 500.62 450.13 500.62 475.13 480.62 469.67"/><polygon class="cls-6" points="520.62 479.67 520.62 454.67 540.62 460.13 540.62 485.13 520.62 479.67"/><polygon class="cls-6" points="495.62 517.85 495.62 487.85 555.62 504.22 555.62 534.22 495.62 517.85"/><polygon class="cls-10" points="495.62 507.85 495.62 487.85 555.62 504.22 555.62 524.22 495.62 507.85"/><polygon class="cls-22" points="580.62 491.94 580.62 521.94 600.62 501.94 600.62 471.94 580.62 491.94"/><polygon class="cls-22" points="610.62 461.94 610.62 491.94 630.62 471.94 630.62 441.94 610.62 461.94"/><polygon class="cls-10" points="610.62 471.94 630.62 451.94 630.62 441.94 610.62 461.94 610.62 471.94"/><polygon class="cls-4" points="455.62 445.94 510.62 411.94 565.62 476.94 645.62 396.94 645.62 391.94 565.62 471.94 510.62 406.94 455.62 441.94 455.62 445.94"/><polygon class="cls-15" points="511.62 401.94 591.63 321.93 533.69 358.79 453.69 438.81 511.62 401.94 511.62 401.94"/><polygon class="cls-15" points="647.89 389.66 591.63 321.93 591.63 321.93 511.62 401.94 567.96 469.61 645.62 391.94 645.6 391.92 647.89 389.66"/><polygon class="cls-15" points="567.36 469.04 511.62 401.94 453.69 438.81 455.62 441.94 499.63 413.94 510.62 406.94 565.62 471.94 567.89 469.68 567.36 469.04"/><path class="cls-4" d="M490.57,622.11l-4.68,1.12a11.89,11.89,0,0,1-3.8.25l-3.47-.31-.49.38c.45.71-.79,1.66-2.31,2.22a9.22,9.22,0,0,1-2.36.53,8.43,8.43,0,0,1-2.74-.23,2.45,2.45,0,0,1-1.56-1c-.22-.45.06-.92.59-1.31a9.41,9.41,0,0,1,2.06-1.06l1.13-.5-.72-.16-1.52-.32c-1.61-.34-2.71-1-2.9-1.74l-.36-1.32c-.21-.79.87-1.54,2.65-1.84l6.48-1.09,11.16-9.64,4.3.59-9,8.7,1.71.31L497,607.54l3.57.45-11.28,9.5,2.87,2.24C493.28,620.58,492.57,621.63,490.57,622.11Zm-18-3.9.24.79,1.41-1.2Zm14.38,1.09-2.52,1.88,3.32-.78Z"/><path class="cls-23" d="M492,560.37a4.59,4.59,0,0,0-.58,2.76,4.73,4.73,0,0,0,1.22,2.6v1l4.42.62v-1.44l1.31-.24a12.93,12.93,0,0,0-.71-5.56"/><line class="cls-24" x1="494.2" y1="588.6" x2="491.58" y2="588.29"/><path class="cls-25" d="M496.18,608.37H499a4.49,4.49,0,0,0,1.78-.36l2.61-1.12,0-1-3.9-1.1H496.2Z"/><polygon class="cls-26" points="488.89 573.15 488.69 572.4 487.29 573.62 488.63 576.35 488.89 573.15"/><polygon class="cls-26" points="499.45 573.32 499.69 579.41 501.74 576.08 499.45 573.32"/><path class="cls-23" d="M487.29,573.62l-2.61-2a2.8,2.8,0,0,0-.13,3.45l3.77,5.22.31-4Z"/><path class="cls-25" d="M488,608.37h2.77a4.58,4.58,0,0,0,1.79-.36l2.61-1.12,0-1-3.89-1.1h-3Z"/><polygon class="cls-26" points="499.45 573.32 499.69 579.41 501.74 576.08 499.45 573.32"/><path class="cls-27" d="M488.08,584.17c-.06.78-.06,4.09,0,4.88l.67,7-.52,8.75h3l1.37-8.23c0-.27.08-.54.1-.81l.47-7.29,1,.11,2.06,7-.06,9.18h3.24l.72-8.54a9.74,9.74,0,0,0,0-1.08l-.32-10.56h0Z"/><polygon class="cls-24" points="499.87 584.64 499.87 584.64 499.87 584.64 499.87 584.64"/><path class="cls-23" d="M504.8,574.44l-.23-.36-2.83,2-2,3.33.17,5.23.71-.31.25-3a1.37,1.37,0,0,1,.5-.9l2.88-2.3A2.79,2.79,0,0,0,504.8,574.44Z"/><path class="cls-28" d="M499.45,573.32v-.44l.34-.87-.34.87v.44l2.29,2.76h0l2.83-2-2.93-4.49a4.6,4.6,0,0,0-3.22-2l-6.66-.93a4.58,4.58,0,0,0-4.15,1.58l-2.93,3.45,2.61,2,1.4-1.22.2.75-.41-1.58.41,1.58-.26,3.2-.31,4-.24,3.85,11.79.47-.17-5.23Z"/><path class="cls-29" d="M498.16,560c.36.92-1.2,3.31-5.16,3.82-.84.11-2.36,0-2.5-1.74,0,0-.25-3.46,2.93-4.32A3.66,3.66,0,0,1,498.16,560Z"/><path class="cls-23" d="M497.32,562.54a1,1,0,0,0-.36-.26.5.5,0,0,0-.43,0,.44.44,0,0,0-.23.29.86.86,0,0,0,0,.39,1.33,1.33,0,0,0,1,1"/><path class="cls-24" d="M494.2,557.61a2.87,2.87,0,0,0-1.75,3.09"/><path class="cls-24" d="M494.88,558.28a2.08,2.08,0,0,0-1,1.87"/><path class="cls-24" d="M488.67,563.32l-.82-1.47"/><path class="cls-24" d="M487.61,564.72l-1.41-.17"/></g></g></svg>